<mxfile host="app.diagrams.net" agent="Mozilla/5.0 (Windows NT 10.0; Win64; x64) AppleWebKit/537.36 (KHTML, like Gecko) Chrome/134.0.0.0 Safari/537.36" version="26.1.1">
  <diagram name="Seite-1" id="xEIMStEsHEy4lgXuNPbF">
    <mxGraphModel dx="830" dy="1237" grid="1" gridSize="10" guides="1" tooltips="1" connect="1" arrows="1" fold="1" page="1" pageScale="1" pageWidth="827" pageHeight="1169" math="0" shadow="0">
      <root>
        <mxCell id="0" />
        <mxCell id="1" parent="0" />
        <mxCell id="mzNQddYliWX2kMnDFGBM-102" value="" style="group" parent="1" connectable="0" vertex="1">
          <mxGeometry x="330" y="160" width="320" height="200" as="geometry" />
        </mxCell>
        <mxCell id="mzNQddYliWX2kMnDFGBM-103" value="" style="rounded=0;whiteSpace=wrap;html=1;fillColor=none;" parent="mzNQddYliWX2kMnDFGBM-102" vertex="1">
          <mxGeometry x="30" width="250" height="190" as="geometry" />
        </mxCell>
        <mxCell id="mzNQddYliWX2kMnDFGBM-104" value="&lt;font style=&quot;font-size: 14px;&quot;&gt;JAS-Estimation&lt;/font&gt;" style="rounded=0;whiteSpace=wrap;html=1;fontSize=20;" parent="mzNQddYliWX2kMnDFGBM-102" vertex="1">
          <mxGeometry x="180" width="100" height="30" as="geometry" />
        </mxCell>
        <mxCell id="mzNQddYliWX2kMnDFGBM-105" value="" style="endArrow=classic;html=1;rounded=0;entryX=0.5;entryY=0;entryDx=0;entryDy=0;exitX=0.5;exitY=1;exitDx=0;exitDy=0;" parent="mzNQddYliWX2kMnDFGBM-102" source="mzNQddYliWX2kMnDFGBM-114" target="mzNQddYliWX2kMnDFGBM-117" edge="1">
          <mxGeometry width="50" height="50" relative="1" as="geometry">
            <mxPoint x="150" y="60" as="sourcePoint" />
            <mxPoint x="149.99999999999977" y="100" as="targetPoint" />
          </mxGeometry>
        </mxCell>
        <mxCell id="mzNQddYliWX2kMnDFGBM-106" value="" style="group;fillColor=default;fontSize=20;" parent="mzNQddYliWX2kMnDFGBM-102" connectable="0" vertex="1">
          <mxGeometry x="44.5" y="104.5" width="50" height="25" as="geometry" />
        </mxCell>
        <mxCell id="mzNQddYliWX2kMnDFGBM-107" value="" style="endArrow=none;html=1;rounded=0;entryX=1;entryY=0;entryDx=0;entryDy=0;" parent="mzNQddYliWX2kMnDFGBM-106" target="mzNQddYliWX2kMnDFGBM-108" edge="1">
          <mxGeometry width="50" height="50" relative="1" as="geometry">
            <mxPoint y="4.166666666666667" as="sourcePoint" />
            <mxPoint x="50" y="4.166666666666667" as="targetPoint" />
            <Array as="points">
              <mxPoint x="25.38461538461538" y="4" />
              <mxPoint x="27.692307692307683" y="1.5" />
              <mxPoint x="40" y="2" />
              <mxPoint x="46.92307692307692" y="1.5" />
            </Array>
          </mxGeometry>
        </mxCell>
        <mxCell id="mzNQddYliWX2kMnDFGBM-108" value="&lt;font style=&quot;font-size: 12px;&quot;&gt;IFE&lt;/font&gt;" style="shape=partialRectangle;whiteSpace=wrap;html=1;bottom=1;right=1;left=1;top=0;fillColor=none;routingCenterX=-0.5;fontSize=18;" parent="mzNQddYliWX2kMnDFGBM-106" vertex="1">
          <mxGeometry y="5.277777777777778" width="50" height="20.833333333333336" as="geometry" />
        </mxCell>
        <mxCell id="mzNQddYliWX2kMnDFGBM-109" value="" style="group;fillColor=default;fontSize=20;" parent="mzNQddYliWX2kMnDFGBM-102" connectable="0" vertex="1">
          <mxGeometry x="204" y="104.5" width="50" height="25" as="geometry" />
        </mxCell>
        <mxCell id="mzNQddYliWX2kMnDFGBM-110" value="" style="endArrow=none;html=1;rounded=0;entryX=1;entryY=0;entryDx=0;entryDy=0;" parent="mzNQddYliWX2kMnDFGBM-109" target="mzNQddYliWX2kMnDFGBM-111" edge="1">
          <mxGeometry width="50" height="50" relative="1" as="geometry">
            <mxPoint y="4.166666666666667" as="sourcePoint" />
            <mxPoint x="50" y="4.166666666666667" as="targetPoint" />
            <Array as="points">
              <mxPoint x="25.38461538461538" y="4" />
              <mxPoint x="27.692307692307683" y="1.5" />
              <mxPoint x="40" y="2" />
              <mxPoint x="46.92307692307692" y="1.5" />
            </Array>
          </mxGeometry>
        </mxCell>
        <mxCell id="mzNQddYliWX2kMnDFGBM-111" value="&lt;font style=&quot;font-size: 12px;&quot;&gt;ISE&lt;/font&gt;" style="shape=partialRectangle;whiteSpace=wrap;html=1;bottom=1;right=1;left=1;top=0;fillColor=none;routingCenterX=-0.5;fontSize=18;" parent="mzNQddYliWX2kMnDFGBM-109" vertex="1">
          <mxGeometry y="5.277777777777778" width="50" height="20.833333333333336" as="geometry" />
        </mxCell>
        <mxCell id="mzNQddYliWX2kMnDFGBM-112" value="" style="group;fillColor=default;fontSize=20;" parent="mzNQddYliWX2kMnDFGBM-102" connectable="0" vertex="1">
          <mxGeometry x="124" y="28" width="50" height="25" as="geometry" />
        </mxCell>
        <mxCell id="mzNQddYliWX2kMnDFGBM-113" value="" style="endArrow=none;html=1;rounded=0;entryX=1;entryY=0;entryDx=0;entryDy=0;" parent="mzNQddYliWX2kMnDFGBM-112" target="mzNQddYliWX2kMnDFGBM-114" edge="1">
          <mxGeometry width="50" height="50" relative="1" as="geometry">
            <mxPoint y="4.166666666666667" as="sourcePoint" />
            <mxPoint x="50" y="4.166666666666667" as="targetPoint" />
            <Array as="points">
              <mxPoint x="25.38461538461538" y="4" />
              <mxPoint x="27.692307692307683" y="1.5" />
              <mxPoint x="40" y="2" />
              <mxPoint x="46.92307692307692" y="1.5" />
            </Array>
          </mxGeometry>
        </mxCell>
        <mxCell id="mzNQddYliWX2kMnDFGBM-114" value="&lt;font style=&quot;font-size: 12px;&quot;&gt;SI&lt;/font&gt;" style="shape=partialRectangle;whiteSpace=wrap;html=1;bottom=1;right=1;left=1;top=0;fillColor=none;routingCenterX=-0.5;fontSize=18;" parent="mzNQddYliWX2kMnDFGBM-112" vertex="1">
          <mxGeometry y="5.277777777777778" width="50" height="20.833333333333336" as="geometry" />
        </mxCell>
        <mxCell id="mzNQddYliWX2kMnDFGBM-115" value="" style="endArrow=blockThin;html=1;rounded=0;labelPosition=center;verticalLabelPosition=top;align=center;verticalAlign=bottom;spacingBottom=3;strokeWidth=1;endFill=1;exitX=1;exitY=0.5;exitDx=0;exitDy=0;labelBackgroundColor=none;entryX=0;entryY=0.5;entryDx=0;entryDy=0;" parent="mzNQddYliWX2kMnDFGBM-102" source="mzNQddYliWX2kMnDFGBM-108" target="mzNQddYliWX2kMnDFGBM-117" edge="1">
          <mxGeometry width="50" height="50" relative="1" as="geometry">
            <mxPoint x="94.5" y="119.66000000000003" as="sourcePoint" />
            <mxPoint x="130" y="120" as="targetPoint" />
          </mxGeometry>
        </mxCell>
        <mxCell id="mzNQddYliWX2kMnDFGBM-116" value="&lt;font style=&quot;font-size: 14px;&quot;&gt;p&lt;/font&gt;" style="endArrow=blockThin;html=1;rounded=0;labelPosition=center;verticalLabelPosition=top;align=center;verticalAlign=bottom;spacingBottom=3;strokeWidth=1;endFill=1;exitX=1;exitY=0.5;exitDx=0;exitDy=0;labelBackgroundColor=none;entryX=0;entryY=0.5;entryDx=0;entryDy=0;" parent="mzNQddYliWX2kMnDFGBM-102" source="mzNQddYliWX2kMnDFGBM-117" target="mzNQddYliWX2kMnDFGBM-111" edge="1">
          <mxGeometry width="50" height="50" relative="1" as="geometry">
            <mxPoint x="169.99999999999977" y="120" as="sourcePoint" />
            <mxPoint x="200" y="120" as="targetPoint" />
          </mxGeometry>
        </mxCell>
        <mxCell id="mzNQddYliWX2kMnDFGBM-117" value="&lt;span style=&quot;color: rgb(32, 33, 34); font-family: sans-serif; font-size: 14px; text-align: left; background-color: rgb(255, 255, 255);&quot;&gt;Î¨&lt;/span&gt;" style="rhombus;whiteSpace=wrap;html=1;strokeColor=default;fillColor=default;fontColor=default;fontSize=15;" parent="mzNQddYliWX2kMnDFGBM-102" vertex="1">
          <mxGeometry x="127.5" y="100" width="42.5" height="40" as="geometry" />
        </mxCell>
        <mxCell id="mzNQddYliWX2kMnDFGBM-118" value="" style="group;fillColor=default;fontSize=20;" parent="mzNQddYliWX2kMnDFGBM-102" connectable="0" vertex="1">
          <mxGeometry x="49" y="28" width="50" height="25" as="geometry" />
        </mxCell>
        <mxCell id="mzNQddYliWX2kMnDFGBM-119" value="" style="endArrow=none;html=1;rounded=0;entryX=1;entryY=0;entryDx=0;entryDy=0;" parent="mzNQddYliWX2kMnDFGBM-118" target="mzNQddYliWX2kMnDFGBM-120" edge="1">
          <mxGeometry width="50" height="50" relative="1" as="geometry">
            <mxPoint y="4.166666666666667" as="sourcePoint" />
            <mxPoint x="50" y="4.166666666666667" as="targetPoint" />
            <Array as="points">
              <mxPoint x="25.38461538461538" y="4" />
              <mxPoint x="27.692307692307683" y="1.5" />
              <mxPoint x="46.92307692307692" y="1.5" />
            </Array>
          </mxGeometry>
        </mxCell>
        <mxCell id="mzNQddYliWX2kMnDFGBM-120" value="&lt;font style=&quot;font-size: 12px;&quot;&gt;AQ&lt;/font&gt;" style="shape=partialRectangle;whiteSpace=wrap;html=1;bottom=1;right=1;left=1;top=0;fillColor=none;routingCenterX=-0.5;fontSize=18;" parent="mzNQddYliWX2kMnDFGBM-118" vertex="1">
          <mxGeometry y="5.277777777777778" width="50" height="20.833333333333336" as="geometry" />
        </mxCell>
        <mxCell id="mzNQddYliWX2kMnDFGBM-121" value="" style="endArrow=classic;html=1;rounded=0;entryX=0.325;entryY=0.224;entryDx=0;entryDy=0;exitX=0.5;exitY=1;exitDx=0;exitDy=0;entryPerimeter=0;" parent="mzNQddYliWX2kMnDFGBM-102" source="mzNQddYliWX2kMnDFGBM-120" target="mzNQddYliWX2kMnDFGBM-117" edge="1">
          <mxGeometry width="50" height="50" relative="1" as="geometry">
            <mxPoint x="127.5" y="58.5" as="sourcePoint" />
            <mxPoint x="127.5" y="104.5" as="targetPoint" />
          </mxGeometry>
        </mxCell>
        <mxCell id="mzNQddYliWX2kMnDFGBM-122" value="&lt;font style=&quot;font-size: 10px;&quot;&gt;&quot;Individual Distribution of independent first estimate of a quantity&quot;&lt;/font&gt;" style="rounded=0;whiteSpace=wrap;html=1;fillColor=#FFFFFF;" parent="1" vertex="1">
          <mxGeometry x="339.5" y="372" width="120" height="60" as="geometry" />
        </mxCell>
        <mxCell id="mzNQddYliWX2kMnDFGBM-123" value="&lt;font style=&quot;font-size: 10px;&quot;&gt;&quot;Individual Distribution of revised second estimate of a quantity&quot;&lt;/font&gt;" style="rounded=0;whiteSpace=wrap;html=1;fillColor=#FFFFFF;" parent="1" vertex="1">
          <mxGeometry x="499" y="372" width="120" height="60" as="geometry" />
        </mxCell>
        <mxCell id="mzNQddYliWX2kMnDFGBM-124" value="&lt;font style=&quot;font-size: 14px;&quot;&gt;n&lt;/font&gt;" style="endArrow=blockThin;html=1;rounded=0;labelPosition=right;verticalLabelPosition=middle;align=left;verticalAlign=middle;strokeWidth=1;endFill=1;entryX=0.5;entryY=0;entryDx=0;entryDy=0;labelBackgroundColor=none;" parent="1" source="mzNQddYliWX2kMnDFGBM-111" target="mzNQddYliWX2kMnDFGBM-123" edge="1">
          <mxGeometry width="50" height="50" relative="1" as="geometry">
            <mxPoint x="560" y="300" as="sourcePoint" />
            <mxPoint x="559.71" y="370" as="targetPoint" />
          </mxGeometry>
        </mxCell>
        <mxCell id="mzNQddYliWX2kMnDFGBM-125" value="&lt;font style=&quot;font-size: 14px;&quot;&gt;n&lt;/font&gt;" style="endArrow=blockThin;html=1;rounded=0;labelPosition=center;verticalLabelPosition=top;align=center;verticalAlign=bottom;strokeWidth=1;endFill=1;exitX=0;exitY=0.124;exitDx=0;exitDy=0;exitPerimeter=0;entryX=1;entryY=0.5;entryDx=0;entryDy=0;" parent="1" source="mzNQddYliWX2kMnDFGBM-103" target="mzNQddYliWX2kMnDFGBM-126" edge="1">
          <mxGeometry width="50" height="50" relative="1" as="geometry">
            <mxPoint x="360" y="180" as="sourcePoint" />
            <mxPoint x="260" y="180" as="targetPoint" />
          </mxGeometry>
        </mxCell>
        <mxCell id="mzNQddYliWX2kMnDFGBM-126" value="&lt;font style=&quot;font-size: 10px;&quot;&gt;&quot;The estimation process for each judge in a group following the judge-advisor system (JAS). Presented with advice (social information), a judge revises his/her first estimate. The estimation task is objective (a quantity). Incentives for individual accuracy are provided.&quot;&lt;/font&gt;" style="rounded=0;whiteSpace=wrap;html=1;fillColor=#FFFFFF;" parent="1" vertex="1">
          <mxGeometry x="30" y="138" width="230" height="90" as="geometry" />
        </mxCell>
        <mxCell id="mzNQddYliWX2kMnDFGBM-127" value="" style="group;fillColor=default;fontSize=20;" parent="1" connectable="0" vertex="1">
          <mxGeometry x="650" y="266" width="50" height="25" as="geometry" />
        </mxCell>
        <mxCell id="mzNQddYliWX2kMnDFGBM-128" value="" style="endArrow=none;html=1;rounded=0;entryX=1;entryY=0;entryDx=0;entryDy=0;" parent="mzNQddYliWX2kMnDFGBM-127" target="mzNQddYliWX2kMnDFGBM-129" edge="1">
          <mxGeometry width="50" height="50" relative="1" as="geometry">
            <mxPoint y="4.166666666666667" as="sourcePoint" />
            <mxPoint x="50" y="4.166666666666667" as="targetPoint" />
            <Array as="points">
              <mxPoint x="25.38461538461538" y="4" />
              <mxPoint x="27.692307692307683" y="1.5" />
              <mxPoint x="46.92307692307692" y="1.5" />
            </Array>
          </mxGeometry>
        </mxCell>
        <mxCell id="mzNQddYliWX2kMnDFGBM-129" value="&lt;font style=&quot;font-size: 12px;&quot;&gt;GSE&lt;/font&gt;" style="shape=partialRectangle;whiteSpace=wrap;html=1;bottom=1;right=1;left=1;top=0;fillColor=none;routingCenterX=-0.5;fontSize=18;" parent="mzNQddYliWX2kMnDFGBM-127" vertex="1">
          <mxGeometry y="4.277777777777778" width="50" height="20.833333333333336" as="geometry" />
        </mxCell>
        <mxCell id="mzNQddYliWX2kMnDFGBM-130" value="&lt;font style=&quot;font-size: 14px;&quot;&gt;p&lt;/font&gt;" style="endArrow=blockThin;html=1;rounded=0;labelPosition=center;verticalLabelPosition=top;align=center;verticalAlign=bottom;spacingBottom=3;strokeWidth=1;endFill=1;entryX=0;entryY=0.5;entryDx=0;entryDy=0;exitX=1;exitY=0.5;exitDx=0;exitDy=0;labelBackgroundColor=none;startArrow=blockThin;startFill=1;" parent="1" source="mzNQddYliWX2kMnDFGBM-111" target="mzNQddYliWX2kMnDFGBM-129" edge="1">
          <mxGeometry width="50" height="50" relative="1" as="geometry">
            <mxPoint x="590" y="286" as="sourcePoint" />
            <mxPoint x="591" y="315.83000000000004" as="targetPoint" />
          </mxGeometry>
        </mxCell>
        <mxCell id="mzNQddYliWX2kMnDFGBM-131" value="" style="group;fillColor=default;fontSize=20;" parent="1" connectable="0" vertex="1">
          <mxGeometry x="270" y="264" width="50" height="25" as="geometry" />
        </mxCell>
        <mxCell id="mzNQddYliWX2kMnDFGBM-132" value="" style="endArrow=none;html=1;rounded=0;entryX=1;entryY=0;entryDx=0;entryDy=0;" parent="mzNQddYliWX2kMnDFGBM-131" target="mzNQddYliWX2kMnDFGBM-133" edge="1">
          <mxGeometry width="50" height="50" relative="1" as="geometry">
            <mxPoint y="4.166666666666667" as="sourcePoint" />
            <mxPoint x="50" y="4.166666666666667" as="targetPoint" />
            <Array as="points">
              <mxPoint x="25.38461538461538" y="4" />
              <mxPoint x="27.692307692307683" y="1.5" />
              <mxPoint x="40" y="2" />
              <mxPoint x="46.92307692307692" y="1.5" />
            </Array>
          </mxGeometry>
        </mxCell>
        <mxCell id="mzNQddYliWX2kMnDFGBM-133" value="&lt;font style=&quot;font-size: 12px;&quot;&gt;GFE&lt;/font&gt;" style="shape=partialRectangle;whiteSpace=wrap;html=1;bottom=1;right=1;left=1;top=0;fillColor=none;routingCenterX=-0.5;fontSize=18;" parent="mzNQddYliWX2kMnDFGBM-131" vertex="1">
          <mxGeometry y="5.277777777777778" width="50" height="20.833333333333336" as="geometry" />
        </mxCell>
        <mxCell id="mzNQddYliWX2kMnDFGBM-134" value="&lt;font style=&quot;font-size: 14px;&quot;&gt;p&lt;/font&gt;" style="endArrow=blockThin;html=1;rounded=0;labelPosition=center;verticalLabelPosition=top;align=center;verticalAlign=bottom;spacingBottom=3;strokeWidth=1;endFill=1;entryX=1;entryY=0.5;entryDx=0;entryDy=0;exitX=0;exitY=0.5;exitDx=0;exitDy=0;labelBackgroundColor=none;startArrow=blockThin;startFill=1;" parent="1" source="mzNQddYliWX2kMnDFGBM-108" target="mzNQddYliWX2kMnDFGBM-133" edge="1">
          <mxGeometry width="50" height="50" relative="1" as="geometry">
            <mxPoint x="372" y="276" as="sourcePoint" />
            <mxPoint x="530" y="278" as="targetPoint" />
          </mxGeometry>
        </mxCell>
        <mxCell id="mzNQddYliWX2kMnDFGBM-135" value="&lt;font style=&quot;font-size: 14px;&quot;&gt;n&lt;/font&gt;" style="endArrow=blockThin;html=1;rounded=0;labelPosition=right;verticalLabelPosition=middle;align=left;verticalAlign=middle;strokeWidth=1;endFill=1;exitX=0.5;exitY=1;exitDx=0;exitDy=0;entryX=0.5;entryY=0;entryDx=0;entryDy=0;labelBackgroundColor=none;" parent="1" source="mzNQddYliWX2kMnDFGBM-108" target="mzNQddYliWX2kMnDFGBM-122" edge="1">
          <mxGeometry width="50" height="50" relative="1" as="geometry">
            <mxPoint x="400" y="300" as="sourcePoint" />
            <mxPoint x="400" y="370" as="targetPoint" />
          </mxGeometry>
        </mxCell>
        <mxCell id="mzNQddYliWX2kMnDFGBM-136" value="&lt;font style=&quot;font-size: 14px;&quot;&gt;n&lt;/font&gt;" style="endArrow=blockThin;html=1;rounded=0;labelPosition=right;verticalLabelPosition=middle;align=left;verticalAlign=middle;strokeWidth=1;endFill=1;exitX=0.5;exitY=0;exitDx=0;exitDy=0;entryX=0.25;entryY=1;entryDx=0;entryDy=0;" parent="1" source="mzNQddYliWX2kMnDFGBM-114" target="mzNQddYliWX2kMnDFGBM-150" edge="1">
          <mxGeometry width="50" height="50" relative="1" as="geometry">
            <mxPoint x="480" y="180" as="sourcePoint" />
            <mxPoint x="479" y="100" as="targetPoint" />
          </mxGeometry>
        </mxCell>
        <mxCell id="mzNQddYliWX2kMnDFGBM-137" value="&lt;b&gt;&lt;font style=&quot;font-size: 13px;&quot;&gt;The Phenomenon&lt;/font&gt;&lt;/b&gt;" style="text;html=1;align=center;verticalAlign=middle;resizable=0;points=[];autosize=1;strokeColor=none;fillColor=none;" parent="1" vertex="1">
          <mxGeometry x="145" y="40" width="130" height="30" as="geometry" />
        </mxCell>
        <mxCell id="mzNQddYliWX2kMnDFGBM-138" value="Analyst: Simeon" style="text;html=1;align=center;verticalAlign=middle;resizable=0;points=[];autosize=1;strokeColor=none;fillColor=none;" parent="1" vertex="1">
          <mxGeometry x="702" y="42" width="105" height="26" as="geometry" />
        </mxCell>
        <mxCell id="mzNQddYliWX2kMnDFGBM-139" value="&quot;Distribution of First Estimates in the Group&quot;" style="rounded=0;whiteSpace=wrap;html=1;fillColor=#FFFFFF;" parent="1" vertex="1">
          <mxGeometry x="50" y="254.5" width="150" height="50" as="geometry" />
        </mxCell>
        <mxCell id="mzNQddYliWX2kMnDFGBM-140" value="&quot;Distribution of Second Estimates in the Group&quot;" style="rounded=0;whiteSpace=wrap;html=1;fillColor=#FFFFFF;" parent="1" vertex="1">
          <mxGeometry x="770" y="255.69" width="150" height="50" as="geometry" />
        </mxCell>
        <mxCell id="mzNQddYliWX2kMnDFGBM-141" value="&lt;font style=&quot;font-size: 14px;&quot;&gt;n&lt;/font&gt;" style="endArrow=blockThin;html=1;rounded=0;labelPosition=center;verticalLabelPosition=top;align=center;verticalAlign=bottom;strokeWidth=1;endFill=1;entryX=0;entryY=0.5;entryDx=0;entryDy=0;exitX=1;exitY=0.5;exitDx=0;exitDy=0;" parent="1" source="mzNQddYliWX2kMnDFGBM-129" target="mzNQddYliWX2kMnDFGBM-140" edge="1">
          <mxGeometry width="50" height="50" relative="1" as="geometry">
            <mxPoint x="740" y="290" as="sourcePoint" />
            <mxPoint x="920" y="350" as="targetPoint" />
          </mxGeometry>
        </mxCell>
        <mxCell id="mzNQddYliWX2kMnDFGBM-142" value="&lt;font style=&quot;font-size: 14px;&quot;&gt;n&lt;/font&gt;" style="endArrow=blockThin;html=1;rounded=0;labelPosition=center;verticalLabelPosition=top;align=center;verticalAlign=bottom;strokeWidth=1;endFill=1;exitX=0;exitY=0.5;exitDx=0;exitDy=0;entryX=1;entryY=0.5;entryDx=0;entryDy=0;" parent="1" source="mzNQddYliWX2kMnDFGBM-133" target="mzNQddYliWX2kMnDFGBM-139" edge="1">
          <mxGeometry width="50" height="50" relative="1" as="geometry">
            <mxPoint x="100" y="350" as="sourcePoint" />
            <mxPoint x="260" y="350" as="targetPoint" />
          </mxGeometry>
        </mxCell>
        <mxCell id="mzNQddYliWX2kMnDFGBM-143" value="ACC" style="rounded=0;whiteSpace=wrap;html=1;" parent="1" vertex="1">
          <mxGeometry x="467" y="575" width="50" height="30" as="geometry" />
        </mxCell>
        <mxCell id="mzNQddYliWX2kMnDFGBM-144" style="edgeStyle=orthogonalEdgeStyle;rounded=0;orthogonalLoop=1;jettySize=auto;html=1;exitX=0.5;exitY=1;exitDx=0;exitDy=0;entryX=0;entryY=0.5;entryDx=0;entryDy=0;endArrow=blockThin;endFill=1;" parent="1" source="mzNQddYliWX2kMnDFGBM-133" target="mzNQddYliWX2kMnDFGBM-143" edge="1">
          <mxGeometry relative="1" as="geometry" />
        </mxCell>
        <mxCell id="mzNQddYliWX2kMnDFGBM-145" style="edgeStyle=orthogonalEdgeStyle;rounded=0;orthogonalLoop=1;jettySize=auto;html=1;exitX=0.5;exitY=1;exitDx=0;exitDy=0;entryX=1;entryY=0.5;entryDx=0;entryDy=0;endArrow=blockThin;endFill=1;" parent="1" source="mzNQddYliWX2kMnDFGBM-129" target="mzNQddYliWX2kMnDFGBM-143" edge="1">
          <mxGeometry relative="1" as="geometry" />
        </mxCell>
        <mxCell id="mzNQddYliWX2kMnDFGBM-146" value="p&lt;sub&gt;1&lt;/sub&gt;" style="text;html=1;align=center;verticalAlign=middle;whiteSpace=wrap;rounded=0;fontSize=14;" parent="1" vertex="1">
          <mxGeometry x="306" y="561" width="60" height="30" as="geometry" />
        </mxCell>
        <mxCell id="mzNQddYliWX2kMnDFGBM-147" value="p&lt;span style=&quot;font-size: 11.6667px;&quot;&gt;&lt;sub&gt;2&amp;nbsp;&lt;/sub&gt;&lt;/span&gt;&amp;gt; p&lt;sub&gt;1&lt;/sub&gt;" style="text;html=1;align=center;verticalAlign=middle;whiteSpace=wrap;rounded=0;fontSize=14;" parent="1" vertex="1">
          <mxGeometry x="589" y="563" width="60" height="30" as="geometry" />
        </mxCell>
        <mxCell id="mzNQddYliWX2kMnDFGBM-148" value="&lt;span style=&quot;font-size: 10px;&quot;&gt;&quot;Collective Accuracy as the mean of the absolute deviations of all individual estimates from the true value&quot;&lt;/span&gt;" style="rounded=0;whiteSpace=wrap;html=1;fillColor=#FFFFFF;" parent="1" vertex="1">
          <mxGeometry x="418.5" y="453" width="147" height="68" as="geometry" />
        </mxCell>
        <mxCell id="mzNQddYliWX2kMnDFGBM-149" value="&lt;font style=&quot;font-size: 14px;&quot;&gt;n&lt;/font&gt;" style="endArrow=blockThin;html=1;rounded=0;labelPosition=right;verticalLabelPosition=middle;align=left;verticalAlign=middle;strokeWidth=1;endFill=1;exitX=0.5;exitY=0;exitDx=0;exitDy=0;entryX=0.5;entryY=1;entryDx=0;entryDy=0;spacingLeft=3;" parent="1" source="mzNQddYliWX2kMnDFGBM-143" target="mzNQddYliWX2kMnDFGBM-148" edge="1">
          <mxGeometry width="50" height="50" relative="1" as="geometry">
            <mxPoint x="588" y="531" as="sourcePoint" />
            <mxPoint x="748" y="531" as="targetPoint" />
          </mxGeometry>
        </mxCell>
        <mxCell id="mzNQddYliWX2kMnDFGBM-150" value="&lt;font style=&quot;font-size: 10px;&quot;&gt;&quot;The social information a person receives, the aggregate of the n - 1 other first estimations&quot;&lt;/font&gt;" style="rounded=0;whiteSpace=wrap;html=1;fillColor=#FFFFFF;" parent="1" vertex="1">
          <mxGeometry x="445.5" y="31" width="135" height="68" as="geometry" />
        </mxCell>
        <mxCell id="mzNQddYliWX2kMnDFGBM-151" value="&lt;font style=&quot;font-size: 14px;&quot;&gt;n&lt;/font&gt;" style="endArrow=blockThin;html=1;rounded=0;labelPosition=right;verticalLabelPosition=middle;align=left;verticalAlign=middle;strokeWidth=1;endFill=1;exitX=0.5;exitY=0;exitDx=0;exitDy=0;entryX=0.75;entryY=1;entryDx=0;entryDy=0;" parent="1" source="mzNQddYliWX2kMnDFGBM-120" target="mzNQddYliWX2kMnDFGBM-152" edge="1">
          <mxGeometry width="50" height="50" relative="1" as="geometry">
            <mxPoint x="489" y="203" as="sourcePoint" />
            <mxPoint x="405" y="110" as="targetPoint" />
          </mxGeometry>
        </mxCell>
        <mxCell id="mzNQddYliWX2kMnDFGBM-152" value="&lt;span style=&quot;font-size: 10px;&quot;&gt;&quot;Pervceived advice quality of the social information&quot;&amp;nbsp;&lt;/span&gt;" style="rounded=0;whiteSpace=wrap;html=1;fillColor=#FFFFFF;" parent="1" vertex="1">
          <mxGeometry x="303" y="31" width="135" height="68" as="geometry" />
        </mxCell>
      </root>
    </mxGraphModel>
  </diagram>
</mxfile>
